<?xml version="1.0" encoding="UTF-8" standalone="no"?>
<!DOCTYPE svg PUBLIC "-//W3C//DTD SVG 1.1//EN"
 "http://www.w3.org/Graphics/SVG/1.1/DTD/svg11.dtd">
<!-- Generated by graphviz version 2.38.0 (20140413.2041)
 -->
<!-- Title: snakemake_dag Pages: 1 -->
<svg width="212pt" height="188pt"
 viewBox="0.00 0.00 211.50 188.00" xmlns="http://www.w3.org/2000/svg" xmlns:xlink="http://www.w3.org/1999/xlink">
<g id="graph0" class="graph" transform="scale(1 1) rotate(0) translate(4 184)">
<title>snakemake_dag</title>
<polygon fill="white" stroke="none" points="-4,4 -4,-184 207.5,-184 207.5,4 -4,4"/>
<!-- 0 -->
<g id="node1" class="node"><title>0</title>
<path fill="none" stroke="#d6d856" stroke-width="2" d="M118.5,-36C118.5,-36 72.5,-36 72.5,-36 66.5,-36 60.5,-30 60.5,-24 60.5,-24 60.5,-12 60.5,-12 60.5,-6 66.5,-0 72.5,-0 72.5,-0 118.5,-0 118.5,-0 124.5,-0 130.5,-6 130.5,-12 130.5,-12 130.5,-24 130.5,-24 130.5,-30 124.5,-36 118.5,-36"/>
<text text-anchor="middle" x="95.5" y="-15.5" font-family="sans" font-size="10.00">preprocess</text>
</g>
<!-- 1 -->
<g id="node2" class="node"><title>1</title>
<path fill="none" stroke="#59d856" stroke-width="2" d="M69,-108C69,-108 12,-108 12,-108 6,-108 0,-102 0,-96 0,-96 0,-84 0,-84 0,-78 6,-72 12,-72 12,-72 69,-72 69,-72 75,-72 81,-78 81,-84 81,-84 81,-96 81,-96 81,-102 75,-108 69,-108"/>
<text text-anchor="middle" x="40.5" y="-87.5" font-family="sans" font-size="10.00">mash_screen</text>
</g>
<!-- 1&#45;&gt;0 -->
<g id="edge1" class="edge"><title>1&#45;&gt;0</title>
<path fill="none" stroke="grey" stroke-width="2" d="M54.0955,-71.6966C60.6227,-63.3893 68.568,-53.2771 75.7466,-44.1407"/>
<polygon fill="grey" stroke="grey" stroke-width="2" points="78.6347,-46.1299 82.0609,-36.1043 73.1305,-41.8051 78.6347,-46.1299"/>
</g>
<!-- 2 -->
<g id="node3" class="node"><title>2</title>
<path fill="none" stroke="#d85656" stroke-width="2" d="M191.5,-108C191.5,-108 111.5,-108 111.5,-108 105.5,-108 99.5,-102 99.5,-96 99.5,-96 99.5,-84 99.5,-84 99.5,-78 105.5,-72 111.5,-72 111.5,-72 191.5,-72 191.5,-72 197.5,-72 203.5,-78 203.5,-84 203.5,-84 203.5,-96 203.5,-96 203.5,-102 197.5,-108 191.5,-108"/>
<text text-anchor="middle" x="151.5" y="-93" font-family="sans" font-size="10.00">size_downsample</text>
<text text-anchor="middle" x="151.5" y="-82" font-family="sans" font-size="10.00">cov: 150</text>
</g>
<!-- 2&#45;&gt;0 -->
<g id="edge2" class="edge"><title>2&#45;&gt;0</title>
<path fill="none" stroke="grey" stroke-width="2" d="M137.657,-71.6966C131.011,-63.3893 122.922,-53.2771 115.613,-44.1407"/>
<polygon fill="grey" stroke="grey" stroke-width="2" points="118.164,-41.7266 109.183,-36.1043 112.697,-46.0995 118.164,-41.7266"/>
</g>
<!-- 3 -->
<g id="node4" class="node"><title>3</title>
<path fill="none" stroke="#56d8d8" stroke-width="2" d="M122,-180C122,-180 69,-180 69,-180 63,-180 57,-174 57,-168 57,-168 57,-156 57,-156 57,-150 63,-144 69,-144 69,-144 122,-144 122,-144 128,-144 134,-150 134,-156 134,-156 134,-168 134,-168 134,-174 128,-180 122,-180"/>
<text text-anchor="middle" x="95.5" y="-165" font-family="sans" font-size="10.00">trim</text>
<text text-anchor="middle" x="95.5" y="-154" font-family="sans" font-size="10.00">sample: test</text>
</g>
<!-- 3&#45;&gt;1 -->
<g id="edge3" class="edge"><title>3&#45;&gt;1</title>
<path fill="none" stroke="grey" stroke-width="2" d="M81.9045,-143.697C75.3773,-135.389 67.432,-125.277 60.2534,-116.141"/>
<polygon fill="grey" stroke="grey" stroke-width="2" points="62.8695,-113.805 53.9391,-108.104 57.3653,-118.13 62.8695,-113.805"/>
</g>
<!-- 3&#45;&gt;2 -->
<g id="edge4" class="edge"><title>3&#45;&gt;2</title>
<path fill="none" stroke="grey" stroke-width="2" d="M109.343,-143.697C115.989,-135.389 124.078,-125.277 131.387,-116.141"/>
<polygon fill="grey" stroke="grey" stroke-width="2" points="134.303,-118.099 137.817,-108.104 128.836,-113.727 134.303,-118.099"/>
</g>
</g>
</svg>
